<?xml version="1.0" encoding="utf-8"?>
<svg version="1.1" id="Camada_1" x="0px" y="0px" viewBox="28.924 40.171 379.64 105.666" style="enableBackground:new 0 0 841.89 595.28;" xmlns="http://www.w3.org/2000/svg">
  <style type="text/css">
	.st0{fillRule:evenodd;clip-rule:evenodd;}
  	.st0{fillRule:evenodd;clip-rule:evenodd;}
    @media (prefers-color-scheme: dark) {
        .st0 { fill: white; }
    }
    @media (prefers-color-scheme: light) {
        .st0 { fill: black; }
    }
</style>
  <g transform="matrix(1, 0, 0, 1, -201.900101, -204.183243)">
    <g>
      <path class="st0" d="M369.35,278.81h-18.09v43.97h8.17v-12.69h9.92c11.56,0,18.72-5.97,18.72-15.64 C388.07,284.71,380.91,278.81,369.35,278.81L369.35,278.81z M368.98,303.18h-9.55v-17.46h9.55c7.16,0,10.87,3.2,10.87,8.73 C379.84,299.98,376.14,303.18,368.98,303.18z"/>
      <path class="st0" d="M402.64,294.14v-4.9h-7.47v33.54h7.85v-16.27c0-6.85,3.77-10.36,9.74-10.36c0.57,0,1.13,0.06,1.82,0.19v-7.47 C408.99,288.86,404.9,290.62,402.64,294.14z"/>
      <path class="st0" d="M435.99,323.22c10.43,0,17.9-7.16,17.9-17.21c0-10.05-7.47-17.15-17.9-17.15c-10.3,0-17.84,7.1-17.84,17.15 C418.16,316.06,425.69,323.22,435.99,323.22L435.99,323.22z M435.99,316.5c-5.65,0-9.92-4.08-9.92-10.49 c0-6.41,4.27-10.49,9.92-10.49c5.72,0,9.99,4.08,9.99,10.49C445.98,312.41,441.71,316.5,435.99,316.5z"/>
      <path class="st0" d="M494.16,322.78h8.54l-19.85-43.97h-8.04l-19.79,43.97h8.42l4.33-10.18h21.98L494.16,322.78L494.16,322.78z M470.54,306.19l8.23-19.22l8.29,19.22H470.54z"/>
      <path class="st0" d="M526.38,278.81h-18.09v43.97h8.17v-12.69h9.92c11.56,0,18.72-5.97,18.72-15.64 C545.1,284.71,537.94,278.81,526.38,278.81L526.38,278.81z M526,303.18h-9.55v-17.46H526c7.16,0,10.87,3.2,10.87,8.73 C536.87,299.98,533.16,303.18,526,303.18z"/>
      <rect x="553.26" y="278.81" class="st0" width="8.17" height="43.97"/>
      <path class="st0" d="M582.91,323.22c9.42,0,15.2-4.08,15.2-10.36c0-13.13-20.73-7.11-20.73-13.88c0-2.2,2.26-3.77,7.03-3.77 c3.2,0,6.41,0.63,9.61,2.51l3.01-5.97c-3.01-1.82-8.1-2.89-12.56-2.89c-9.04,0-14.76,4.15-14.76,10.49 c0,13.38,20.73,7.34,20.73,13.76c0,2.32-2.07,3.71-7.03,3.71c-4.21,0-8.73-1.38-11.68-3.33l-3.01,5.97 C571.73,321.58,577.32,323.22,582.91,323.22z"/>
    </g>
    <path class="st0" d="M248.61,297.74l0.23-0.55c0.26,0.3,0.54,0.58,0.83,0.86c-3.27,12.2-4.85,18.7,4.04,13.3l13.11-8.53 c7.27-5.22,6.7-5.55,7.93-13.56l3.81-25.11c-0.3-1.83-0.93-2.8-2.17-2.78c-1.93,0.02-5.4,3.2-11.93,10.22 c-0.33-0.11-0.67-0.22-1.01-0.3c7.04-8.53,13.17-13.4,21.83-19.97l-0.05,34.4c0.05,8.59,0.08,12.53-8.1,18.23l-6.83,4.54 c-8.09,5.2-18.47,11.42-26.51,16.18C244.3,314.39,245.84,305.93,248.61,297.74L248.61,297.74z M257.01,274.91 c-5.03,0.12-9.02,4.29-8.9,9.33c0.12,5.03,4.29,9.02,9.33,8.9c5.03-0.12,9.02-4.29,8.9-9.33 C266.22,278.78,262.04,274.79,257.01,274.91L257.01,274.91z M316.31,274.91c-5.03,0.12-9.02,4.29-8.9,9.33 c0.12,5.03,4.29,9.02,9.33,8.9c5.03-0.12,9.02-4.29,8.9-9.33C325.52,278.78,321.34,274.79,316.31,274.91L316.31,274.91z M286.66,325.74c-5.03,0.12-9.02,4.29-8.9,9.33c0.12,5.03,4.29,9.02,9.33,8.9c5.03-0.12,9.02-4.29,8.9-9.33 C295.87,329.61,291.69,325.62,286.66,325.74L286.66,325.74z M325.12,297.75c2.58,7.63,4.23,16.14,4.76,25.71 c0.02,0.45,0.05,0.85,0.08,1.22c-8.04-4.77-18.44-10.99-26.54-16.2l-6.83-4.54c-8.18-5.71-8.15-9.64-8.1-18.23l-0.05-34.36 c8.39,6.28,15.15,11.91,21.81,19.94c-0.34,0.09-0.67,0.19-0.99,0.3c-6.54-7.02-10.01-10.2-11.93-10.22 c-1.24-0.01-1.87,0.95-2.17,2.78l3.81,25.11c1.23,8.01,0.66,8.34,7.93,13.56l13.11,8.53c8.89,5.4,7.31-1.1,4.04-13.3 c0.29-0.27,0.57-0.56,0.83-0.86L325.12,297.75L325.12,297.75z M271.63,334.01c-3.49-0.72-12.18-1.52-13.94-4.69 c-1.1-1.98,1.8-3.86,4.81-5.65c1.85-1.1,21.41-12.5,24.37-12.5c2.99,0,23.23,11.79,25.24,13.02c3.25,2.04,4.84,3.51,3.94,5.13 c-1.76,3.17-11.32,4-13.9,4.67c0.01,0.12-0.23,0.63-0.23,0.75c7.6-0.88,17.22-2.37,24.14-5.25c2.22-0.92,3.01-1.23,3.25-2.02 c-7.99-5.01-18.94-11.83-27.68-16.88c-3.91-2.35-10.78-6.46-14.77-6.46c-3.99,0-10.85,4.11-14.77,6.46 c-8.74,5.04-19.69,11.86-27.68,16.88c0.24,0.79,1.03,1.1,3.25,2.02c6.92,2.88,16.53,4.37,24.14,5.25 C271.82,334.62,271.62,334.13,271.63,334.01z"/>
  </g>
</svg>