 <svg class="text-gray-950 dark:text-white h-7" xmlns="http://www.w3.org/2000/svg"
                                xmlns:xlink="http://www.w3.org/1999/xlink" zoomAndPan="magnify"
                                viewBox="0 0 360 74.999997" height="100" 
                                version="1.0">
                                <defs>
                                    <g />
                                </defs>
                                <g fill="currentColor" fill-opacity="1">
                                    <g transform="translate(95.399018, 53.999995)">
                                        <g>
                                            <path
                                                d="M 4.65625 13.09375 L 4.65625 -32.3125 L 12.78125 -32.3125 L 12.78125 -28.09375 L 13.390625 -27.984375 C 14.347656 -29.617188 15.625 -30.851562 17.21875 -31.6875 C 18.820312 -32.519531 20.703125 -32.9375 22.859375 -32.9375 C 25.453125 -32.9375 27.71875 -32.316406 29.65625 -31.078125 C 31.601562 -29.847656 33.117188 -27.976562 34.203125 -25.46875 C 35.285156 -22.957031 35.828125 -19.847656 35.828125 -16.140625 C 35.828125 -12.453125 35.253906 -9.359375 34.109375 -6.859375 C 32.972656 -4.359375 31.390625 -2.488281 29.359375 -1.25 C 27.328125 -0.0078125 24.984375 0.609375 22.328125 0.609375 C 20.316406 0.609375 18.578125 0.273438 17.109375 -0.390625 C 15.640625 -1.066406 14.398438 -2.117188 13.390625 -3.546875 L 12.78125 -3.421875 L 12.78125 13.09375 Z M 20.0625 -6.265625 C 22.488281 -6.265625 24.328125 -7.054688 25.578125 -8.640625 C 26.828125 -10.222656 27.453125 -12.722656 27.453125 -16.140625 C 27.453125 -19.554688 26.828125 -22.0625 25.578125 -23.65625 C 24.328125 -25.25 22.488281 -26.046875 20.0625 -26.046875 C 17.800781 -26.046875 16.003906 -25.222656 14.671875 -23.578125 C 13.347656 -21.941406 12.6875 -19.460938 12.6875 -16.140625 C 12.6875 -12.835938 13.347656 -10.363281 14.671875 -8.71875 C 16.003906 -7.082031 17.800781 -6.265625 20.0625 -6.265625 Z M 20.0625 -6.265625 " />
                                        </g>
                                    </g>
                                    <g transform="translate(134.100186, 53.999995)">
                                        <g>
                                            <path
                                                d="M 4.65625 0 L 4.65625 -32.3125 L 12.546875 -32.3125 L 12.546875 -27.515625 L 13.15625 -27.390625 C 13.9375 -29.191406 14.960938 -30.507812 16.234375 -31.34375 C 17.503906 -32.1875 19.046875 -32.609375 20.859375 -32.609375 C 22.691406 -32.609375 24.085938 -32.296875 25.046875 -31.671875 L 23.671875 -24.671875 L 23.0625 -24.546875 C 22.53125 -24.765625 22.019531 -24.921875 21.53125 -25.015625 C 21.039062 -25.117188 20.445312 -25.171875 19.75 -25.171875 C 17.476562 -25.171875 15.75 -24.375 14.5625 -22.78125 C 13.375 -21.1875 12.78125 -18.632812 12.78125 -15.125 L 12.78125 0 Z M 4.65625 0 " />
                                        </g>
                                    </g>
                                    <g transform="translate(159.441981, 53.999995)">
                                        <g>
                                            <path
                                                d="M 18.78125 0.609375 C 15.613281 0.609375 12.832031 -0.0351562 10.4375 -1.328125 C 8.050781 -2.628906 6.195312 -4.535156 4.875 -7.046875 C 3.5625 -9.554688 2.90625 -12.585938 2.90625 -16.140625 C 2.90625 -19.691406 3.5625 -22.726562 4.875 -25.25 C 6.195312 -27.769531 8.050781 -29.679688 10.4375 -30.984375 C 12.832031 -32.285156 15.613281 -32.9375 18.78125 -32.9375 C 21.945312 -32.9375 24.722656 -32.285156 27.109375 -30.984375 C 29.503906 -29.679688 31.363281 -27.769531 32.6875 -25.25 C 34.019531 -22.726562 34.6875 -19.691406 34.6875 -16.140625 C 34.6875 -12.585938 34.019531 -9.554688 32.6875 -7.046875 C 31.363281 -4.535156 29.503906 -2.628906 27.109375 -1.328125 C 24.722656 -0.0351562 21.945312 0.609375 18.78125 0.609375 Z M 18.78125 -6.265625 C 23.800781 -6.265625 26.3125 -9.554688 26.3125 -16.140625 C 26.3125 -19.554688 25.664062 -22.0625 24.375 -23.65625 C 23.082031 -25.25 21.21875 -26.046875 18.78125 -26.046875 C 13.757812 -26.046875 11.25 -22.742188 11.25 -16.140625 C 11.25 -9.554688 13.757812 -6.265625 18.78125 -6.265625 Z M 18.78125 -6.265625 " />
                                        </g>
                                    </g>
                                    <g transform="translate(197.000572, 53.999995)">
                                        <g>
                                            <path
                                                d="M 12.59375 0.609375 C 10.53125 0.609375 8.734375 0.226562 7.203125 -0.53125 C 5.679688 -1.289062 4.507812 -2.40625 3.6875 -3.875 C 2.875 -5.351562 2.46875 -7.128906 2.46875 -9.203125 C 2.46875 -11.117188 2.875 -12.722656 3.6875 -14.015625 C 4.507812 -15.316406 5.78125 -16.378906 7.5 -17.203125 C 9.21875 -18.035156 11.460938 -18.675781 14.234375 -19.125 C 16.171875 -19.4375 17.640625 -19.78125 18.640625 -20.15625 C 19.648438 -20.53125 20.332031 -20.953125 20.6875 -21.421875 C 21.039062 -21.890625 21.21875 -22.484375 21.21875 -23.203125 C 21.21875 -24.234375 20.851562 -25.019531 20.125 -25.5625 C 19.40625 -26.113281 18.207031 -26.390625 16.53125 -26.390625 C 14.726562 -26.390625 13.015625 -25.988281 11.390625 -25.1875 C 9.773438 -24.394531 8.367188 -23.34375 7.171875 -22.03125 L 6.59375 -22.03125 L 3.1875 -27.15625 C 4.832031 -28.976562 6.835938 -30.394531 9.203125 -31.40625 C 11.566406 -32.425781 14.144531 -32.9375 16.9375 -32.9375 C 21.207031 -32.9375 24.300781 -32.023438 26.21875 -30.203125 C 28.132812 -28.390625 29.09375 -25.8125 29.09375 -22.46875 L 29.09375 -8.4375 C 29.09375 -6.988281 29.726562 -6.265625 31 -6.265625 C 31.488281 -6.265625 31.96875 -6.351562 32.4375 -6.53125 L 32.84375 -6.421875 L 33.421875 -0.765625 C 32.972656 -0.472656 32.347656 -0.234375 31.546875 -0.046875 C 30.753906 0.140625 29.878906 0.234375 28.921875 0.234375 C 26.984375 0.234375 25.472656 -0.132812 24.390625 -0.875 C 23.304688 -1.625 22.53125 -2.785156 22.0625 -4.359375 L 21.453125 -4.421875 C 19.867188 -1.066406 16.914062 0.609375 12.59375 0.609375 Z M 15.171875 -5.453125 C 17.046875 -5.453125 18.546875 -6.082031 19.671875 -7.34375 C 20.796875 -8.601562 21.359375 -10.351562 21.359375 -12.59375 L 21.359375 -15.875 L 20.796875 -16 C 20.304688 -15.601562 19.664062 -15.273438 18.875 -15.015625 C 18.09375 -14.753906 16.957031 -14.492188 15.46875 -14.234375 C 13.707031 -13.941406 12.441406 -13.4375 11.671875 -12.71875 C 10.898438 -12.007812 10.515625 -11.003906 10.515625 -9.703125 C 10.515625 -8.316406 10.925781 -7.257812 11.75 -6.53125 C 12.570312 -5.8125 13.710938 -5.453125 15.171875 -5.453125 Z M 15.171875 -5.453125 " />
                                        </g>
                                    </g>
                                    <g transform="translate(231.072834, 53.999995)">
                                        <g>
                                            <path
                                                d="M 4.65625 13.09375 L 4.65625 -32.3125 L 12.78125 -32.3125 L 12.78125 -28.09375 L 13.390625 -27.984375 C 14.347656 -29.617188 15.625 -30.851562 17.21875 -31.6875 C 18.820312 -32.519531 20.703125 -32.9375 22.859375 -32.9375 C 25.453125 -32.9375 27.71875 -32.316406 29.65625 -31.078125 C 31.601562 -29.847656 33.117188 -27.976562 34.203125 -25.46875 C 35.285156 -22.957031 35.828125 -19.847656 35.828125 -16.140625 C 35.828125 -12.453125 35.253906 -9.359375 34.109375 -6.859375 C 32.972656 -4.359375 31.390625 -2.488281 29.359375 -1.25 C 27.328125 -0.0078125 24.984375 0.609375 22.328125 0.609375 C 20.316406 0.609375 18.578125 0.273438 17.109375 -0.390625 C 15.640625 -1.066406 14.398438 -2.117188 13.390625 -3.546875 L 12.78125 -3.421875 L 12.78125 13.09375 Z M 20.0625 -6.265625 C 22.488281 -6.265625 24.328125 -7.054688 25.578125 -8.640625 C 26.828125 -10.222656 27.453125 -12.722656 27.453125 -16.140625 C 27.453125 -19.554688 26.828125 -22.0625 25.578125 -23.65625 C 24.328125 -25.25 22.488281 -26.046875 20.0625 -26.046875 C 17.800781 -26.046875 16.003906 -25.222656 14.671875 -23.578125 C 13.347656 -21.941406 12.6875 -19.460938 12.6875 -16.140625 C 12.6875 -12.835938 13.347656 -10.363281 14.671875 -8.71875 C 16.003906 -7.082031 17.800781 -6.265625 20.0625 -6.265625 Z M 20.0625 -6.265625 " />
                                        </g>
                                    </g>
                                    <g transform="translate(269.774003, 53.999995)">
                                        <g>
                                            <path
                                                d="M 8.703125 -36.1875 C 7.234375 -36.1875 6.039062 -36.628906 5.125 -37.515625 C 4.207031 -38.398438 3.75 -39.546875 3.75 -40.953125 C 3.75 -42.335938 4.207031 -43.472656 5.125 -44.359375 C 6.039062 -45.253906 7.234375 -45.703125 8.703125 -45.703125 C 9.679688 -45.703125 10.550781 -45.492188 11.3125 -45.078125 C 12.070312 -44.671875 12.660156 -44.109375 13.078125 -43.390625 C 13.503906 -42.679688 13.71875 -41.867188 13.71875 -40.953125 C 13.71875 -40.035156 13.503906 -39.210938 13.078125 -38.484375 C 12.660156 -37.765625 12.070312 -37.203125 11.3125 -36.796875 C 10.550781 -36.390625 9.679688 -36.1875 8.703125 -36.1875 Z M 4.65625 0 L 4.65625 -32.3125 L 12.78125 -32.3125 L 12.78125 0 Z M 4.65625 0 " />
                                        </g>
                                    </g>
                                    <g transform="translate(287.176345, 53.999995)">
                                        <g>
                                            <path
                                                d="M 15.125 0.609375 C 12.914062 0.609375 10.890625 0.351562 9.046875 -0.15625 C 7.210938 -0.675781 5.644531 -1.390625 4.34375 -2.296875 C 3.050781 -3.203125 2.09375 -4.242188 1.46875 -5.421875 L 5.984375 -10.28125 L 6.59375 -10.28125 C 7.664062 -8.832031 8.929688 -7.75 10.390625 -7.03125 C 11.859375 -6.3125 13.453125 -5.953125 15.171875 -5.953125 C 16.753906 -5.953125 17.945312 -6.234375 18.75 -6.796875 C 19.550781 -7.359375 19.953125 -8.171875 19.953125 -9.234375 C 19.953125 -10.046875 19.660156 -10.726562 19.078125 -11.28125 C 18.503906 -11.84375 17.578125 -12.28125 16.296875 -12.59375 L 12.015625 -13.625 C 8.804688 -14.382812 6.460938 -15.550781 4.984375 -17.125 C 3.515625 -18.695312 2.78125 -20.691406 2.78125 -23.109375 C 2.78125 -25.128906 3.289062 -26.878906 4.3125 -28.359375 C 5.34375 -29.847656 6.789062 -30.984375 8.65625 -31.765625 C 10.519531 -32.546875 12.691406 -32.9375 15.171875 -32.9375 C 18.085938 -32.9375 20.5 -32.515625 22.40625 -31.671875 C 24.320312 -30.828125 25.816406 -29.703125 26.890625 -28.296875 L 22.5625 -23.609375 L 21.96875 -23.609375 C 21.070312 -24.628906 20.0625 -25.375 18.9375 -25.84375 C 17.8125 -26.3125 16.554688 -26.546875 15.171875 -26.546875 C 11.972656 -26.546875 10.375 -25.550781 10.375 -23.5625 C 10.375 -22.71875 10.671875 -22.03125 11.265625 -21.5 C 11.859375 -20.976562 12.910156 -20.550781 14.421875 -20.21875 L 18.40625 -19.34375 C 21.6875 -18.632812 24.082031 -17.503906 25.59375 -15.953125 C 27.101562 -14.398438 27.859375 -12.316406 27.859375 -9.703125 C 27.859375 -7.648438 27.347656 -5.84375 26.328125 -4.28125 C 25.316406 -2.71875 23.851562 -1.507812 21.9375 -0.65625 C 20.03125 0.1875 17.757812 0.609375 15.125 0.609375 Z M 15.125 0.609375 " />
                                        </g>
                                    </g>
                                </g>
                                <path fill="currentColor"
                                    d="M 47.5625 15.191406 C 47.113281 15.113281 46.660156 15.070312 46.203125 15.070312 C 45.746094 15.070312 45.292969 15.109375 44.84375 15.183594 C 44.390625 15.261719 43.953125 15.378906 43.523438 15.53125 C 43.089844 15.6875 42.675781 15.875 42.28125 16.101562 C 41.882812 16.328125 41.507812 16.585938 41.152344 16.878906 C 40.800781 17.167969 40.472656 17.488281 40.175781 17.835938 C 39.875 18.183594 39.609375 18.554688 39.371094 18.949219 C 39.136719 19.339844 38.9375 19.753906 38.769531 20.179688 C 38.605469 20.609375 38.476562 21.050781 38.386719 21.5 C 38.296875 21.953125 38.246094 22.40625 38.234375 22.867188 C 38.222656 23.328125 38.25 23.785156 38.316406 24.238281 C 38.382812 24.695312 38.484375 25.140625 38.628906 25.578125 C 38.769531 26.015625 38.949219 26.4375 39.164062 26.84375 C 39.378906 27.246094 39.625 27.632812 39.90625 27.996094 C 40.183594 28.359375 40.492188 28.695312 40.832031 29.003906 C 41.167969 29.3125 41.53125 29.59375 41.917969 29.839844 C 42.210938 30.03125 42.460938 30.269531 42.664062 30.558594 C 42.863281 30.847656 43.003906 31.167969 43.078125 31.511719 C 43.15625 31.859375 43.164062 32.203125 43.101562 32.554688 C 43.039062 32.902344 42.914062 33.226562 42.726562 33.523438 L 32.332031 49.980469 C 32.511719 50.324219 32.648438 50.683594 32.75 51.0625 C 32.851562 51.4375 32.910156 51.820312 32.925781 52.210938 C 32.945312 52.601562 32.921875 52.988281 32.851562 53.371094 C 32.785156 53.753906 32.679688 54.128906 32.53125 54.488281 C 32.382812 54.847656 32.199219 55.1875 31.976562 55.507812 C 31.753906 55.828125 31.5 56.117188 31.21875 56.382812 C 30.933594 56.644531 30.621094 56.875 30.285156 57.070312 C 29.953125 57.265625 29.601562 57.421875 29.230469 57.539062 C 28.863281 57.65625 28.484375 57.734375 28.097656 57.769531 C 27.714844 57.800781 27.328125 57.792969 26.945312 57.742188 C 26.5625 57.695312 26.1875 57.601562 25.824219 57.46875 C 25.460938 57.335938 25.113281 57.164062 24.789062 56.957031 C 24.460938 56.746094 24.160156 56.503906 23.886719 56.230469 C 23.613281 55.953125 23.371094 55.652344 23.164062 55.324219 C 22.957031 54.992188 22.785156 54.648438 22.652344 54.28125 C 22.519531 53.914062 22.425781 53.539062 22.375 53.152344 C 22.324219 52.765625 22.316406 52.378906 22.351562 51.988281 C 22.382812 51.601562 22.457031 51.21875 22.574219 50.847656 C 22.691406 50.476562 22.84375 50.121094 23.039062 49.785156 C 23.230469 49.445312 23.457031 49.132812 23.71875 48.84375 C 23.980469 48.558594 24.269531 48.300781 24.585938 48.078125 C 24.902344 47.855469 25.242188 47.667969 25.597656 47.519531 C 25.957031 47.367188 26.324219 47.257812 26.707031 47.191406 C 27.085938 47.121094 27.46875 47.097656 27.855469 47.113281 L 36.976562 32.683594 C 36.566406 32.285156 36.183594 31.859375 35.828125 31.414062 C 35.472656 30.964844 35.148438 30.496094 34.851562 30.003906 C 34.558594 29.515625 34.292969 29.007812 34.0625 28.484375 C 33.832031 27.957031 33.636719 27.421875 33.476562 26.871094 C 33.3125 26.320312 33.1875 25.761719 33.097656 25.195312 C 33.007812 24.628906 32.953125 24.058594 32.9375 23.488281 C 32.917969 22.914062 32.9375 22.34375 32.996094 21.769531 C 33.050781 21.199219 33.140625 20.636719 33.269531 20.078125 C 33.398438 19.519531 33.5625 18.96875 33.761719 18.433594 C 33.957031 17.894531 34.191406 17.371094 34.457031 16.863281 C 34.71875 16.355469 35.015625 15.867188 35.34375 15.398438 C 35.671875 14.929688 36.027344 14.484375 36.414062 14.0625 C 36.796875 13.636719 37.207031 13.242188 37.644531 12.871094 C 38.078125 12.503906 38.535156 12.164062 39.015625 11.851562 C 39.492188 11.542969 39.992188 11.265625 40.503906 11.019531 C 41.019531 10.773438 41.546875 10.5625 42.089844 10.382812 C 42.628906 10.207031 43.179688 10.066406 43.742188 9.960938 C 44.300781 9.855469 44.863281 9.785156 45.433594 9.753906 C 46 9.71875 46.570312 9.726562 47.136719 9.765625 C 47.707031 9.808594 48.269531 9.886719 48.824219 10 C 49.382812 10.113281 49.933594 10.265625 50.472656 10.449219 C 51.011719 10.636719 51.535156 10.855469 52.046875 11.109375 C 52.554688 11.363281 53.046875 11.648438 53.523438 11.964844 C 53.996094 12.28125 54.449219 12.628906 54.878906 13.007812 C 55.308594 13.382812 55.710938 13.785156 56.089844 14.214844 C 56.46875 14.640625 56.816406 15.09375 57.136719 15.566406 C 57.457031 16.042969 57.746094 16.535156 58.003906 17.046875 C 58.261719 17.558594 58.484375 18.085938 58.675781 18.625 C 58.867188 19.164062 59.019531 19.714844 59.140625 20.277344 C 59.261719 20.835938 59.34375 21.402344 59.390625 21.976562 C 59.4375 22.546875 59.449219 23.121094 59.421875 23.691406 C 59.394531 24.265625 59.332031 24.835938 59.234375 25.398438 C 59.175781 25.746094 59.050781 26.070312 58.859375 26.371094 C 58.671875 26.667969 58.433594 26.921875 58.144531 27.125 C 57.855469 27.328125 57.539062 27.46875 57.199219 27.542969 C 56.855469 27.621094 56.507812 27.628906 56.164062 27.566406 C 55.816406 27.503906 55.496094 27.378906 55.199219 27.1875 C 54.902344 26.996094 54.652344 26.757812 54.449219 26.464844 C 54.25 26.175781 54.109375 25.859375 54.035156 25.511719 C 53.960938 25.167969 53.953125 24.820312 54.011719 24.46875 C 54.105469 23.953125 54.144531 23.429688 54.132812 22.90625 C 54.121094 22.378906 54.058594 21.859375 53.945312 21.347656 C 53.832031 20.832031 53.671875 20.335938 53.460938 19.855469 C 53.25 19.371094 52.996094 18.917969 52.695312 18.484375 C 52.398438 18.054688 52.058594 17.65625 51.679688 17.292969 C 51.304688 16.929688 50.894531 16.605469 50.457031 16.324219 C 50.015625 16.042969 49.550781 15.804688 49.066406 15.613281 C 48.578125 15.425781 48.078125 15.285156 47.566406 15.191406 Z M 40.882812 23.078125 C 40.882812 22.675781 40.929688 22.273438 41.019531 21.878906 C 41.109375 21.488281 41.242188 21.109375 41.417969 20.742188 C 41.59375 20.378906 41.808594 20.042969 42.058594 19.726562 C 42.3125 19.410156 42.597656 19.128906 42.914062 18.878906 C 43.230469 18.628906 43.570312 18.421875 43.933594 18.25 C 44.296875 18.078125 44.675781 17.949219 45.066406 17.863281 C 45.460938 17.777344 45.855469 17.738281 46.257812 17.742188 C 46.660156 17.75 47.054688 17.800781 47.445312 17.894531 C 47.835938 17.992188 48.210938 18.132812 48.570312 18.3125 C 48.925781 18.496094 49.261719 18.714844 49.570312 18.972656 C 49.878906 19.234375 50.15625 19.523438 50.398438 19.84375 C 50.640625 20.167969 50.847656 20.511719 51.011719 20.878906 C 51.179688 21.25 51.300781 21.632812 51.378906 22.027344 C 51.460938 22.425781 51.492188 22.824219 51.484375 23.230469 C 51.472656 23.632812 51.414062 24.03125 51.316406 24.421875 C 51.214844 24.816406 51.070312 25.191406 50.886719 25.546875 L 60.003906 39.980469 C 60.730469 39.699219 61.472656 39.488281 62.234375 39.339844 C 62.996094 39.191406 63.765625 39.109375 64.539062 39.097656 C 65.316406 39.085938 66.089844 39.144531 66.855469 39.269531 C 67.621094 39.394531 68.371094 39.585938 69.101562 39.84375 C 69.835938 40.097656 70.539062 40.417969 71.21875 40.800781 C 71.894531 41.183594 72.53125 41.621094 73.132812 42.117188 C 73.734375 42.613281 74.289062 43.15625 74.792969 43.75 C 75.296875 44.339844 75.75 44.972656 76.144531 45.648438 C 76.539062 46.320312 76.875 47.023438 77.148438 47.753906 C 77.417969 48.484375 77.628906 49.234375 77.769531 50.003906 C 77.910156 50.773438 77.984375 51.546875 77.992188 52.328125 C 78 53.109375 77.9375 53.886719 77.808594 54.65625 C 77.683594 55.429688 77.488281 56.183594 77.226562 56.917969 C 76.96875 57.65625 76.644531 58.363281 76.261719 59.042969 C 75.878906 59.722656 75.441406 60.363281 74.945312 60.964844 C 74.449219 61.566406 73.90625 62.121094 73.316406 62.628906 C 72.722656 63.132812 72.089844 63.582031 71.421875 63.976562 C 70.75 64.371094 70.050781 64.703125 69.324219 64.972656 C 68.597656 65.246094 67.851562 65.449219 67.085938 65.585938 C 66.324219 65.726562 65.550781 65.796875 64.777344 65.796875 C 64 65.800781 63.230469 65.734375 62.464844 65.597656 C 61.699219 65.464844 60.953125 65.265625 60.222656 65 C 59.496094 64.734375 58.792969 64.402344 58.121094 64.015625 C 57.449219 63.625 56.816406 63.175781 56.222656 62.675781 C 55.960938 62.445312 55.753906 62.171875 55.597656 61.859375 C 55.441406 61.550781 55.351562 61.21875 55.324219 60.871094 C 55.296875 60.523438 55.335938 60.183594 55.441406 59.847656 C 55.550781 59.515625 55.714844 59.21875 55.9375 58.949219 C 56.160156 58.683594 56.421875 58.464844 56.730469 58.304688 C 57.035156 58.140625 57.363281 58.042969 57.707031 58.007812 C 58.050781 57.972656 58.390625 58.007812 58.722656 58.105469 C 59.054688 58.207031 59.355469 58.367188 59.628906 58.585938 C 60 58.898438 60.402344 59.179688 60.824219 59.421875 C 61.25 59.660156 61.695312 59.863281 62.15625 60.023438 C 62.617188 60.183594 63.089844 60.296875 63.570312 60.371094 C 64.054688 60.441406 64.539062 60.46875 65.027344 60.449219 C 65.515625 60.433594 65.996094 60.371094 66.472656 60.261719 C 66.949219 60.15625 67.410156 60.003906 67.859375 59.8125 C 68.308594 59.617188 68.738281 59.386719 69.144531 59.113281 C 69.550781 58.839844 69.925781 58.535156 70.277344 58.191406 C 70.628906 57.847656 70.941406 57.476562 71.226562 57.074219 C 71.507812 56.675781 71.75 56.25 71.957031 55.804688 C 72.160156 55.359375 72.324219 54.898438 72.441406 54.421875 C 72.5625 53.945312 72.640625 53.460938 72.671875 52.96875 C 72.703125 52.480469 72.691406 51.992188 72.632812 51.503906 C 72.574219 51.015625 72.472656 50.535156 72.328125 50.066406 C 72.183594 49.597656 71.996094 49.144531 71.769531 48.710938 C 71.542969 48.277344 71.277344 47.867188 70.976562 47.480469 C 70.671875 47.09375 70.335938 46.738281 69.96875 46.414062 C 69.601562 46.09375 69.210938 45.804688 68.789062 45.554688 C 68.371094 45.304688 67.929688 45.09375 67.472656 44.925781 C 67.015625 44.757812 66.542969 44.628906 66.0625 44.546875 C 65.582031 44.464844 65.097656 44.429688 64.609375 44.4375 C 64.121094 44.445312 63.640625 44.496094 63.160156 44.59375 C 62.683594 44.691406 62.214844 44.832031 61.765625 45.015625 C 61.3125 45.199219 60.878906 45.425781 60.46875 45.6875 C 60.171875 45.878906 59.851562 46.003906 59.503906 46.066406 C 59.15625 46.125 58.8125 46.117188 58.46875 46.039062 C 58.128906 45.964844 57.8125 45.824219 57.523438 45.621094 C 57.238281 45.417969 57 45.167969 56.808594 44.867188 L 46.410156 28.414062 C 46.054688 28.429688 45.699219 28.410156 45.34375 28.351562 C 44.992188 28.292969 44.648438 28.203125 44.3125 28.074219 C 43.980469 27.949219 43.660156 27.789062 43.359375 27.597656 C 43.054688 27.40625 42.773438 27.183594 42.515625 26.933594 C 42.257812 26.6875 42.027344 26.414062 41.824219 26.117188 C 41.621094 25.820312 41.449219 25.507812 41.308594 25.175781 C 41.167969 24.84375 41.0625 24.5 40.988281 24.148438 C 40.917969 23.796875 40.882812 23.4375 40.882812 23.078125 Z M 26.496094 41.5 C 26.613281 41.835938 26.667969 42.175781 26.652344 42.53125 C 26.636719 42.882812 26.554688 43.222656 26.40625 43.542969 C 26.257812 43.863281 26.050781 44.144531 25.792969 44.382812 C 25.535156 44.621094 25.238281 44.800781 24.910156 44.921875 C 24.457031 45.089844 24.019531 45.296875 23.605469 45.542969 C 23.1875 45.789062 22.796875 46.070312 22.429688 46.390625 C 22.066406 46.707031 21.730469 47.054688 21.429688 47.4375 C 21.125 47.816406 20.859375 48.21875 20.632812 48.648438 C 20.402344 49.078125 20.214844 49.523438 20.066406 49.984375 C 19.917969 50.449219 19.8125 50.921875 19.746094 51.402344 C 19.683594 51.886719 19.664062 52.371094 19.691406 52.855469 C 19.714844 53.34375 19.785156 53.824219 19.894531 54.296875 C 20.007812 54.769531 20.160156 55.230469 20.355469 55.675781 C 20.546875 56.121094 20.78125 56.542969 21.054688 56.945312 C 21.324219 57.351562 21.628906 57.722656 21.96875 58.070312 C 22.308594 58.417969 22.675781 58.730469 23.070312 59.007812 C 23.46875 59.289062 23.886719 59.53125 24.324219 59.730469 C 24.765625 59.933594 25.21875 60.09375 25.6875 60.214844 C 26.15625 60.332031 26.628906 60.410156 27.113281 60.441406 C 27.59375 60.472656 28.074219 60.460938 28.554688 60.402344 C 29.035156 60.347656 29.507812 60.246094 29.96875 60.105469 C 30.429688 59.960938 30.875 59.777344 31.304688 59.550781 C 31.730469 59.328125 32.136719 59.066406 32.519531 58.765625 C 32.898438 58.46875 33.25 58.136719 33.570312 57.773438 C 33.894531 57.410156 34.179688 57.019531 34.429688 56.601562 C 34.679688 56.1875 34.890625 55.75 35.0625 55.296875 C 35.234375 54.84375 35.363281 54.375 35.453125 53.898438 C 35.539062 53.417969 35.582031 52.933594 35.582031 52.449219 C 35.582031 52.09375 35.652344 51.753906 35.785156 51.425781 C 35.921875 51.097656 36.113281 50.8125 36.359375 50.558594 C 36.609375 50.308594 36.894531 50.117188 37.21875 49.980469 C 37.542969 49.847656 37.882812 49.777344 38.234375 49.777344 L 60.144531 49.777344 C 60.335938 49.441406 60.566406 49.128906 60.828125 48.839844 C 61.089844 48.554688 61.378906 48.296875 61.695312 48.074219 C 62.011719 47.851562 62.347656 47.664062 62.707031 47.515625 C 63.0625 47.367188 63.433594 47.257812 63.816406 47.191406 C 64.195312 47.121094 64.578125 47.097656 64.964844 47.113281 C 65.351562 47.128906 65.734375 47.191406 66.105469 47.289062 C 66.480469 47.390625 66.839844 47.53125 67.183594 47.710938 C 67.527344 47.890625 67.847656 48.105469 68.144531 48.359375 C 68.4375 48.609375 68.707031 48.886719 68.941406 49.199219 C 69.175781 49.507812 69.375 49.839844 69.539062 50.191406 C 69.703125 50.546875 69.828125 50.910156 69.910156 51.292969 C 69.996094 51.671875 70.035156 52.058594 70.035156 52.449219 C 70.035156 52.839844 69.996094 53.222656 69.910156 53.605469 C 69.828125 53.984375 69.703125 54.351562 69.539062 54.707031 C 69.375 55.058594 69.175781 55.390625 68.941406 55.699219 C 68.707031 56.007812 68.4375 56.289062 68.144531 56.539062 C 67.847656 56.789062 67.527344 57.003906 67.183594 57.183594 C 66.839844 57.363281 66.480469 57.503906 66.105469 57.605469 C 65.734375 57.707031 65.351562 57.765625 64.964844 57.785156 C 64.578125 57.800781 64.195312 57.773438 63.816406 57.707031 C 63.433594 57.640625 63.0625 57.53125 62.707031 57.382812 C 62.347656 57.234375 62.011719 57.046875 61.695312 56.824219 C 61.378906 56.597656 61.089844 56.34375 60.828125 56.054688 C 60.566406 55.769531 60.335938 55.457031 60.144531 55.117188 L 40.617188 55.117188 C 40.503906 55.6875 40.351562 56.246094 40.164062 56.792969 C 39.976562 57.339844 39.753906 57.875 39.5 58.394531 C 39.242188 58.910156 38.953125 59.410156 38.632812 59.894531 C 38.3125 60.375 37.960938 60.832031 37.582031 61.265625 C 37.203125 61.703125 36.796875 62.109375 36.363281 62.492188 C 35.929688 62.875 35.472656 63.226562 34.996094 63.546875 C 34.515625 63.871094 34.019531 64.160156 33.503906 64.417969 C 32.988281 64.671875 32.457031 64.894531 31.914062 65.082031 C 31.371094 65.269531 30.816406 65.421875 30.25 65.535156 C 29.6875 65.648438 29.117188 65.726562 28.542969 65.765625 C 27.96875 65.808594 27.394531 65.808594 26.820312 65.773438 C 26.246094 65.738281 25.679688 65.664062 25.113281 65.554688 C 24.546875 65.445312 23.992188 65.296875 23.445312 65.117188 C 22.902344 64.933594 22.371094 64.714844 21.851562 64.460938 C 21.332031 64.210938 20.835938 63.921875 20.355469 63.605469 C 19.871094 63.285156 19.414062 62.9375 18.980469 62.558594 C 18.542969 62.183594 18.132812 61.777344 17.75 61.34375 C 17.367188 60.914062 17.011719 60.457031 16.6875 59.976562 C 16.363281 59.5 16.070312 59.003906 15.8125 58.484375 C 15.550781 57.96875 15.324219 57.4375 15.132812 56.890625 C 14.941406 56.34375 14.785156 55.785156 14.667969 55.21875 C 14.546875 54.652344 14.464844 54.082031 14.421875 53.503906 C 14.375 52.925781 14.367188 52.347656 14.394531 51.769531 C 14.425781 51.1875 14.492188 50.613281 14.59375 50.042969 C 14.699219 49.472656 14.839844 48.914062 15.015625 48.363281 C 15.191406 47.808594 15.402344 47.273438 15.648438 46.75 C 15.894531 46.222656 16.171875 45.71875 16.484375 45.230469 C 16.792969 44.742188 17.136719 44.277344 17.507812 43.835938 C 17.878906 43.390625 18.277344 42.976562 18.703125 42.585938 C 19.125 42.195312 19.574219 41.832031 20.046875 41.5 C 20.519531 41.171875 21.007812 40.871094 21.519531 40.601562 C 22.03125 40.335938 22.554688 40.101562 23.097656 39.90625 C 23.425781 39.785156 23.769531 39.730469 24.117188 39.746094 C 24.46875 39.761719 24.804688 39.84375 25.125 39.992188 C 25.441406 40.140625 25.71875 40.347656 25.957031 40.609375 C 26.195312 40.871094 26.375 41.167969 26.496094 41.5 Z M 26.496094 41.5 "
                                    fill-opacity="1" fillRule="evenodd" />
                            </svg>